<mxfile host="app.diagrams.net" modified="2024-05-21T23:40:00.082Z" agent="Mozilla/5.0 (Macintosh; Intel Mac OS X 10_15_7) AppleWebKit/537.36 (KHTML, like Gecko) Chrome/125.0.0.0 Safari/537.36" etag="SYCgpPA4GUOeQuaEtEAW" version="24.4.0" type="github">
  <diagram name="componentes" id="DkJfYMlQqM9YxGwyBqGq">
    <mxGraphModel dx="1781" dy="1750" grid="1" gridSize="10" guides="1" tooltips="1" connect="1" arrows="1" fold="1" page="1" pageScale="1" pageWidth="827" pageHeight="1169" math="0" shadow="0">
      <root>
        <mxCell id="0" />
        <mxCell id="1" parent="0" />
        <mxCell id="_5OnRm-G_WFXxfHDdo0h-55" value="" style="group;textShadow=1;" parent="1" vertex="1" connectable="0">
          <mxGeometry x="-620" y="-231.55999999999995" width="1280" height="610" as="geometry" />
        </mxCell>
        <mxCell id="_5OnRm-G_WFXxfHDdo0h-22" value="" style="rounded=0;whiteSpace=wrap;html=1;" parent="_5OnRm-G_WFXxfHDdo0h-55" vertex="1">
          <mxGeometry width="1280" height="610" as="geometry" />
        </mxCell>
        <mxCell id="oD3bYgC-L7KplqavCX0M-25" value="&lt;font style=&quot;font-size: 24px;&quot;&gt;Componentes do projeto&lt;/font&gt;" style="text;html=1;align=center;verticalAlign=middle;resizable=0;points=[];autosize=1;strokeColor=none;fillColor=none;fontStyle=2" parent="_5OnRm-G_WFXxfHDdo0h-55" vertex="1">
          <mxGeometry x="20" y="24.400000000000002" width="290" height="40" as="geometry" />
        </mxCell>
        <mxCell id="_5OnRm-G_WFXxfHDdo0h-1" value="&lt;p style=&quot;margin:0px;margin-top:6px;text-align:center;&quot;&gt;&lt;b&gt;Serviço de Consulta Meteorológica&lt;/b&gt;&lt;/p&gt;&lt;hr size=&quot;1&quot; style=&quot;border-style:solid;&quot;&gt;&lt;p style=&quot;margin:0px;margin-left:8px;&quot;&gt;usuario: str&lt;/p&gt;&lt;p style=&quot;margin:0px;margin-left:8px;&quot;&gt;termo_pesquisa: str&lt;/p&gt;&lt;p style=&quot;margin:0px;margin-left:8px;&quot;&gt;&lt;i&gt;periodicos_capes()&lt;/i&gt;&lt;/p&gt;&lt;p style=&quot;margin:0px;margin-left:8px;&quot;&gt;&lt;i&gt;google_academico()&lt;/i&gt;&lt;/p&gt;&lt;p style=&quot;margin:0px;margin-left:8px;&quot;&gt;&lt;i&gt;nature()&lt;/i&gt;&lt;/p&gt;&lt;p style=&quot;margin:0px;margin-left:8px;&quot;&gt;&lt;i&gt;mendeley()&lt;/i&gt;&lt;/p&gt;&lt;p style=&quot;margin:0px;margin-left:8px;&quot;&gt;&lt;i&gt;periodicos_ufms()&lt;/i&gt;&lt;/p&gt;" style="align=left;overflow=fill;html=1;dropTarget=0;whiteSpace=wrap;" parent="_5OnRm-G_WFXxfHDdo0h-55" vertex="1">
          <mxGeometry x="57" y="111.55999999999995" width="300" height="150.89" as="geometry" />
        </mxCell>
        <mxCell id="_5OnRm-G_WFXxfHDdo0h-2" value="" style="shape=component;jettyWidth=8;jettyHeight=4;" parent="_5OnRm-G_WFXxfHDdo0h-1" vertex="1">
          <mxGeometry x="1" width="20" height="20" relative="1" as="geometry">
            <mxPoint x="-24" y="4" as="offset" />
          </mxGeometry>
        </mxCell>
        <mxCell id="_5OnRm-G_WFXxfHDdo0h-25" value="" style="group;strokeColor=none;" parent="1" vertex="1" connectable="0">
          <mxGeometry x="690" y="-307.5" width="850" height="500" as="geometry" />
        </mxCell>
        <mxCell id="_5OnRm-G_WFXxfHDdo0h-24" value="" style="rounded=0;whiteSpace=wrap;html=1;" parent="_5OnRm-G_WFXxfHDdo0h-25" vertex="1">
          <mxGeometry width="850" height="500" as="geometry" />
        </mxCell>
        <mxCell id="oD3bYgC-L7KplqavCX0M-23" value="&lt;font style=&quot;font-size: 20px;&quot;&gt;Classes de análise&lt;/font&gt;" style="text;html=1;align=center;verticalAlign=middle;resizable=0;points=[];autosize=1;strokeColor=none;fillColor=none;fontStyle=2" parent="_5OnRm-G_WFXxfHDdo0h-25" vertex="1">
          <mxGeometry x="10" y="15" width="190" height="40" as="geometry" />
        </mxCell>
        <mxCell id="EXmDr_LhyaWMVEoEs46r-2" value="&lt;p style=&quot;margin:0px;margin-top:4px;text-align:center;&quot;&gt;&lt;b&gt;coleta_dados&lt;/b&gt;&lt;/p&gt;&lt;hr size=&quot;1&quot; style=&quot;border-style:solid;&quot;&gt;&lt;p style=&quot;margin:0px;margin-left:4px;&quot;&gt;- lat: float&lt;/p&gt;&lt;p style=&quot;margin:0px;margin-left:4px;&quot;&gt;- lon: float&lt;/p&gt;&lt;p style=&quot;margin:0px;margin-left:4px;&quot;&gt;- api_client: consumo_API&lt;/p&gt;&lt;hr size=&quot;1&quot; style=&quot;border-style:solid;&quot;&gt;&lt;p style=&quot;margin:0px;margin-left:4px;&quot;&gt;+ __init__(lat: float, long: float)&lt;/p&gt;&lt;p style=&quot;margin:0px;margin-left:4px;&quot;&gt;+ coleta_dados(): DataFrame&lt;/p&gt;" style="verticalAlign=top;align=left;overflow=fill;html=1;whiteSpace=wrap;" vertex="1" parent="_5OnRm-G_WFXxfHDdo0h-25">
          <mxGeometry x="630" y="30" width="160" height="200" as="geometry" />
        </mxCell>
        <mxCell id="EXmDr_LhyaWMVEoEs46r-3" value="&lt;p style=&quot;margin:0px;margin-top:4px;text-align:center;&quot;&gt;&amp;lt;&amp;lt;metaclass&amp;gt;&amp;gt;&lt;b&gt;&lt;br&gt;&lt;/b&gt;&lt;/p&gt;&lt;p style=&quot;margin:0px;margin-top:4px;text-align:center;&quot;&gt;&lt;b&gt;SingletonMeta&lt;/b&gt;&lt;/p&gt;&lt;hr size=&quot;1&quot; style=&quot;border-style:solid;&quot;&gt;&lt;p style=&quot;margin:0px;margin-left:4px;&quot;&gt;- _instances: dict&lt;/p&gt;&lt;p style=&quot;margin:0px;margin-left:4px;&quot;&gt;- _lock: Lock&lt;br&gt;&lt;/p&gt;&lt;hr size=&quot;1&quot; style=&quot;border-style:solid;&quot;&gt;&lt;p style=&quot;margin:0px;margin-left:4px;&quot;&gt;+ __call__(classe, *args, **kwargs): object&lt;/p&gt;" style="verticalAlign=top;align=left;overflow=fill;html=1;whiteSpace=wrap;" vertex="1" parent="_5OnRm-G_WFXxfHDdo0h-25">
          <mxGeometry x="20" y="82.5" width="265" height="122.5" as="geometry" />
        </mxCell>
        <mxCell id="EXmDr_LhyaWMVEoEs46r-6" value="" style="group" vertex="1" connectable="0" parent="_5OnRm-G_WFXxfHDdo0h-25">
          <mxGeometry x="340" y="30" width="265" height="190" as="geometry" />
        </mxCell>
        <mxCell id="oD3bYgC-L7KplqavCX0M-20" value="&lt;p style=&quot;margin:0px;margin-top:4px;text-align:center;&quot;&gt;&lt;b style=&quot;background-color: initial;&quot;&gt;consumo_API&lt;/b&gt;&lt;br&gt;&lt;/p&gt;&lt;hr size=&quot;1&quot; style=&quot;border-style:solid;&quot;&gt;&lt;p style=&quot;margin:0px;margin-left:4px;&quot;&gt;- api_key: str&lt;/p&gt;&lt;p style=&quot;margin:0px;margin-left:4px;&quot;&gt;- lang: str&lt;/p&gt;&lt;p style=&quot;margin:0px;margin-left:4px;&quot;&gt;- metric: str&lt;/p&gt;&lt;p style=&quot;margin:0px;margin-left:4px;&quot;&gt;- url_template: str&lt;/p&gt;&lt;hr size=&quot;1&quot; style=&quot;border-style:solid;&quot;&gt;&lt;p style=&quot;margin:0px;margin-left:4px;&quot;&gt;+ __init__()&lt;/p&gt;&lt;p style=&quot;margin:0px;margin-left:4px;&quot;&gt;+ busca_dados_meteorologicos(lat: float, lon: float): dict&lt;/p&gt;&lt;p style=&quot;margin:0px;margin-left:4px;&quot;&gt;&lt;br&gt;&lt;/p&gt;&lt;p style=&quot;margin: 4px 0px 0px; text-align: center;&quot;&gt;&amp;lt;&amp;lt;singleton&amp;gt;&amp;gt;&lt;b&gt;&lt;br&gt;&lt;/b&gt;&lt;/p&gt;&lt;div&gt;&lt;br&gt;&lt;/div&gt;" style="verticalAlign=top;align=left;overflow=fill;html=1;whiteSpace=wrap;" parent="EXmDr_LhyaWMVEoEs46r-6" vertex="1">
          <mxGeometry width="265" height="190" as="geometry" />
        </mxCell>
        <mxCell id="EXmDr_LhyaWMVEoEs46r-4" value="" style="line;strokeWidth=1;fillColor=none;align=left;verticalAlign=middle;spacingTop=-1;spacingLeft=3;spacingRight=3;rotatable=0;labelPosition=right;points=[];portConstraint=eastwest;strokeColor=default;" vertex="1" parent="EXmDr_LhyaWMVEoEs46r-6">
          <mxGeometry y="149.99632772727273" width="265" height="7.967636363636363" as="geometry" />
        </mxCell>
        <mxCell id="EXmDr_LhyaWMVEoEs46r-18" value="" style="group" vertex="1" connectable="0" parent="_5OnRm-G_WFXxfHDdo0h-25">
          <mxGeometry x="340" y="247.5" width="265" height="160" as="geometry" />
        </mxCell>
        <mxCell id="EXmDr_LhyaWMVEoEs46r-19" value="&lt;p style=&quot;margin:0px;margin-top:4px;text-align:center;&quot;&gt;&lt;b&gt;armazena_mysql&lt;/b&gt;&lt;br&gt;&lt;/p&gt;&lt;hr size=&quot;1&quot; style=&quot;border-style:solid;&quot;&gt;&lt;p style=&quot;margin:0px;margin-left:4px;&quot;&gt;- conexao: Connection&lt;br&gt;&lt;/p&gt;&lt;hr size=&quot;1&quot; style=&quot;border-style:solid;&quot;&gt;&lt;p style=&quot;margin:0px;margin-left:4px;&quot;&gt;+ __init__()&lt;/p&gt;&lt;p style=&quot;margin:0px;margin-left:4px;&quot;&gt;+ connect()&lt;/p&gt;&lt;p style=&quot;margin:0px;margin-left:4px;&quot;&gt;+ close()&lt;/p&gt;&lt;p style=&quot;margin:0px;margin-left:4px;&quot;&gt;+ armazena_dados(df: DataFrame)&lt;/p&gt;&lt;p style=&quot;margin:0px;margin-left:4px;&quot;&gt;&lt;br&gt;&lt;/p&gt;&lt;p style=&quot;margin: 4px 0px 0px; text-align: center;&quot;&gt;&amp;lt;&amp;lt;singleton&amp;gt;&amp;gt;&lt;b&gt;&lt;br&gt;&lt;/b&gt;&lt;/p&gt;&lt;div&gt;&lt;br&gt;&lt;/div&gt;" style="verticalAlign=top;align=left;overflow=fill;html=1;whiteSpace=wrap;" vertex="1" parent="EXmDr_LhyaWMVEoEs46r-18">
          <mxGeometry width="265" height="160" as="geometry" />
        </mxCell>
        <mxCell id="EXmDr_LhyaWMVEoEs46r-20" value="" style="line;strokeWidth=1;fillColor=none;align=left;verticalAlign=middle;spacingTop=-1;spacingLeft=3;spacingRight=3;rotatable=0;labelPosition=right;points=[];portConstraint=eastwest;strokeColor=default;" vertex="1" parent="EXmDr_LhyaWMVEoEs46r-18">
          <mxGeometry y="126.3126970334928" width="265" height="6.709588516746411" as="geometry" />
        </mxCell>
        <mxCell id="EXmDr_LhyaWMVEoEs46r-21" value="" style="line;strokeWidth=1;fillColor=none;align=left;verticalAlign=middle;spacingTop=-1;spacingLeft=3;spacingRight=3;rotatable=0;labelPosition=right;points=[];portConstraint=eastwest;strokeColor=default;" vertex="1" parent="_5OnRm-G_WFXxfHDdo0h-25">
          <mxGeometry x="630" y="187.5" width="160" height="8" as="geometry" />
        </mxCell>
        <mxCell id="oD3bYgC-L7KplqavCX0M-17" value="" style="ellipse;whiteSpace=wrap;html=1;align=center;aspect=fixed;fillColor=none;strokeColor=none;resizable=0;perimeter=centerPerimeter;rotatable=0;allowArrows=0;points=[];outlineConnect=1;" parent="1" vertex="1">
          <mxGeometry x="200" y="140.89" width="10" height="10" as="geometry" />
        </mxCell>
        <mxCell id="_5OnRm-G_WFXxfHDdo0h-16" value="" style="rounded=0;orthogonalLoop=1;jettySize=auto;html=1;endArrow=oval;endFill=0;sketch=0;sourcePerimeterSpacing=0;targetPerimeterSpacing=0;endSize=10;" parent="1" source="_5OnRm-G_WFXxfHDdo0h-42" edge="1">
          <mxGeometry relative="1" as="geometry">
            <mxPoint x="139.99999999999977" y="-10" as="sourcePoint" />
            <mxPoint x="30" y="60" as="targetPoint" />
          </mxGeometry>
        </mxCell>
        <mxCell id="_5OnRm-G_WFXxfHDdo0h-17" value="" style="rounded=0;orthogonalLoop=1;jettySize=auto;html=1;endArrow=halfCircle;endFill=0;endSize=6;strokeWidth=1;sketch=0;fontSize=12;curved=1;" parent="1" source="oD3bYgC-L7KplqavCX0M-35" edge="1">
          <mxGeometry relative="1" as="geometry">
            <mxPoint x="420" y="130" as="sourcePoint" />
            <mxPoint x="30" y="60" as="targetPoint" />
          </mxGeometry>
        </mxCell>
        <mxCell id="oD3bYgC-L7KplqavCX0M-6" value="" style="rounded=0;orthogonalLoop=1;jettySize=auto;html=1;endArrow=oval;endFill=0;sketch=0;sourcePerimeterSpacing=0;targetPerimeterSpacing=0;endSize=10;" parent="1" source="oD3bYgC-L7KplqavCX0M-18" edge="1">
          <mxGeometry relative="1" as="geometry">
            <mxPoint x="1020" y="-65.49777777777778" as="sourcePoint" />
            <mxPoint x="320" y="-60" as="targetPoint" />
          </mxGeometry>
        </mxCell>
        <mxCell id="oD3bYgC-L7KplqavCX0M-18" value="&lt;p style=&quot;margin:0px;margin-top:6px;text-align:center;&quot;&gt;&lt;b&gt;Serviço de ETL&lt;/b&gt;&lt;/p&gt;&lt;hr size=&quot;1&quot; style=&quot;border-style:solid;&quot;&gt;&lt;p style=&quot;margin:0px;margin-left:8px;&quot;&gt;lat: float&lt;/p&gt;&lt;p style=&quot;margin:0px;margin-left:8px;&quot;&gt;long: float&lt;/p&gt;&lt;p style=&quot;margin:0px;margin-left:8px;&quot;&gt;chave_api: str&lt;/p&gt;&lt;p style=&quot;margin:0px;margin-left:8px;&quot;&gt;nome_tabela: str&lt;/p&gt;&lt;p style=&quot;margin:0px;margin-left:8px;&quot;&gt;nome_bd: str&lt;/p&gt;&lt;p style=&quot;margin:0px;margin-left:8px;&quot;&gt;&lt;i&gt;coleta()&lt;/i&gt;&lt;/p&gt;&lt;p style=&quot;margin:0px;margin-left:8px;&quot;&gt;&lt;i&gt;armazena_mysql()&lt;/i&gt;&lt;/p&gt;" style="align=left;overflow=fill;html=1;dropTarget=0;whiteSpace=wrap;" parent="1" vertex="1">
          <mxGeometry x="370" y="-120" width="180" height="150" as="geometry" />
        </mxCell>
        <mxCell id="oD3bYgC-L7KplqavCX0M-19" value="" style="shape=component;jettyWidth=8;jettyHeight=4;" parent="oD3bYgC-L7KplqavCX0M-18" vertex="1">
          <mxGeometry x="1" width="20" height="20" relative="1" as="geometry">
            <mxPoint x="-24" y="4" as="offset" />
          </mxGeometry>
        </mxCell>
        <mxCell id="_5OnRm-G_WFXxfHDdo0h-29" value="" style="group;textShadow=1;textOpacity=20;" parent="1" vertex="1" connectable="0">
          <mxGeometry x="-580" y="-450" width="1140" height="170" as="geometry" />
        </mxCell>
        <mxCell id="_5OnRm-G_WFXxfHDdo0h-27" value="" style="rounded=1;whiteSpace=wrap;html=1;" parent="_5OnRm-G_WFXxfHDdo0h-29" vertex="1">
          <mxGeometry width="1140" height="170" as="geometry" />
        </mxCell>
        <mxCell id="_5OnRm-G_WFXxfHDdo0h-21" value="&lt;a href=&quot;https://budkee.notion.site/Open-Weather-Map-3b2e4e5a58ec4898ad31f94c178ca2db?pvs=4&quot; style=&quot;font-size: 20px;&quot;&gt;Análise e Modelagem (Notion)&lt;/a&gt;&lt;div style=&quot;font-size: 20px;&quot;&gt;&lt;a href=&quot;https://budkee.notion.site/Componentes-de-software-4c32db42b6584c9982c5c0b9314c788b?pvs=4&quot; style=&quot;font-size: 20px;&quot;&gt;Descrição dos Componentes (Notion)&lt;/a&gt;&lt;/div&gt;" style="text;html=1;align=center;verticalAlign=middle;resizable=0;points=[];autosize=1;strokeColor=none;fillColor=none;fontSize=20;" parent="_5OnRm-G_WFXxfHDdo0h-29" vertex="1">
          <mxGeometry x="389.9971428571428" y="90" width="360" height="60" as="geometry" />
        </mxCell>
        <mxCell id="_5OnRm-G_WFXxfHDdo0h-28" value="&lt;font style=&quot;font-size: 32px;&quot;&gt;&lt;i&gt;Sistema de Coleta de Dados Climáticos&lt;/i&gt;&lt;/font&gt;" style="text;html=1;align=left;verticalAlign=bottom;resizable=0;points=[];autosize=1;strokeColor=none;fillColor=none;fontStyle=1" parent="_5OnRm-G_WFXxfHDdo0h-29" vertex="1">
          <mxGeometry x="274.9971428571429" y="10" width="590" height="50" as="geometry" />
        </mxCell>
        <mxCell id="_5OnRm-G_WFXxfHDdo0h-12" value="" style="rounded=0;orthogonalLoop=1;jettySize=auto;html=1;endArrow=oval;endFill=0;sketch=0;sourcePerimeterSpacing=0;targetPerimeterSpacing=0;endSize=10;" parent="1" source="_5OnRm-G_WFXxfHDdo0h-42" edge="1">
          <mxGeometry relative="1" as="geometry">
            <mxPoint x="-140" y="-95.55555555555557" as="sourcePoint" />
            <mxPoint y="-160" as="targetPoint" />
          </mxGeometry>
        </mxCell>
        <mxCell id="_5OnRm-G_WFXxfHDdo0h-30" value="" style="rounded=0;orthogonalLoop=1;jettySize=auto;html=1;endArrow=halfCircle;endFill=0;endSize=6;strokeWidth=1;sketch=0;fontSize=12;curved=1;" parent="1" source="_5OnRm-G_WFXxfHDdo0h-42" edge="1">
          <mxGeometry relative="1" as="geometry">
            <mxPoint x="139.15999999999985" y="-80.61999999999989" as="sourcePoint" />
            <mxPoint x="170" y="-60" as="targetPoint" />
          </mxGeometry>
        </mxCell>
        <mxCell id="_5OnRm-G_WFXxfHDdo0h-13" value="&lt;div&gt;&lt;span style=&quot;font-weight: normal;&quot;&gt;&lt;i&gt;requires&lt;/i&gt;&lt;/span&gt;&lt;/div&gt;recupera_dados" style="text;align=left;fontStyle=1;verticalAlign=middle;spacingLeft=3;spacingRight=3;strokeColor=none;rotatable=0;points=[[0,0.5],[1,0.5]];portConstraint=eastwest;html=1;" parent="1" vertex="1">
          <mxGeometry x="90" y="-119.99777777777783" width="80" height="31.777777777777775" as="geometry" />
        </mxCell>
        <mxCell id="_5OnRm-G_WFXxfHDdo0h-11" value="&lt;div style=&quot;&quot;&gt;&lt;i style=&quot;font-weight: 400;&quot;&gt;provides&lt;/i&gt;&lt;br&gt;&lt;/div&gt;dashboard_servico" style="text;align=right;fontStyle=1;verticalAlign=middle;spacingLeft=3;spacingRight=3;strokeColor=none;rotatable=0;points=[[0,0.5],[1,0.5]];portConstraint=eastwest;html=1;" parent="1" vertex="1">
          <mxGeometry x="-130" y="-200" width="130" height="30" as="geometry" />
        </mxCell>
        <mxCell id="_5OnRm-G_WFXxfHDdo0h-36" value="" style="rounded=0;orthogonalLoop=1;jettySize=auto;html=1;endArrow=halfCircle;endFill=0;endSize=6;strokeWidth=1;sketch=0;fontSize=12;curved=1;" parent="1" source="oD3bYgC-L7KplqavCX0M-18" edge="1">
          <mxGeometry relative="1" as="geometry">
            <mxPoint x="640" y="40" as="sourcePoint" />
            <mxPoint x="460" y="100" as="targetPoint" />
          </mxGeometry>
        </mxCell>
        <mxCell id="_5OnRm-G_WFXxfHDdo0h-38" value="&lt;div&gt;&lt;span style=&quot;font-weight: normal;&quot;&gt;&lt;i&gt;provides&lt;/i&gt;&lt;/span&gt;&lt;/div&gt;envia_dados" style="text;align=right;fontStyle=1;verticalAlign=middle;spacingLeft=3;spacingRight=3;strokeColor=none;rotatable=0;points=[[0,0.5],[1,0.5]];portConstraint=eastwest;html=1;" parent="1" vertex="1">
          <mxGeometry x="260" y="-110" width="110" height="31.78" as="geometry" />
        </mxCell>
        <mxCell id="_5OnRm-G_WFXxfHDdo0h-39" value="&lt;div&gt;&lt;span style=&quot;font-weight: normal;&quot;&gt;&lt;i&gt;requires&lt;/i&gt;&lt;/span&gt;&lt;/div&gt;solicita_dados" style="text;align=right;fontStyle=1;verticalAlign=middle;spacingLeft=3;spacingRight=3;strokeColor=none;rotatable=0;points=[[0,0.5],[1,0.5]];portConstraint=eastwest;html=1;" parent="1" vertex="1">
          <mxGeometry x="370" y="57.552222222222156" width="80" height="31.777777777777775" as="geometry" />
        </mxCell>
        <mxCell id="_5OnRm-G_WFXxfHDdo0h-40" value="&lt;div&gt;&lt;span style=&quot;font-weight: normal;&quot;&gt;&lt;i&gt;provides&lt;/i&gt;&lt;/span&gt;&lt;/div&gt;envia_dados" style="text;align=left;fontStyle=1;verticalAlign=middle;spacingLeft=3;spacingRight=3;strokeColor=none;rotatable=0;points=[[0,0.5],[1,0.5]];portConstraint=eastwest;html=1;" parent="1" vertex="1">
          <mxGeometry x="30" y="6.439999999999998" width="110" height="31.78" as="geometry" />
        </mxCell>
        <mxCell id="_5OnRm-G_WFXxfHDdo0h-41" value="" style="group" parent="1" vertex="1" connectable="0">
          <mxGeometry x="-200" y="140" width="400" height="140" as="geometry" />
        </mxCell>
        <mxCell id="oD3bYgC-L7KplqavCX0M-7" value="" style="ellipse;whiteSpace=wrap;html=1;align=center;aspect=fixed;fillColor=none;strokeColor=none;resizable=0;perimeter=centerPerimeter;rotatable=0;allowArrows=0;points=[];outlineConnect=1;" parent="_5OnRm-G_WFXxfHDdo0h-41" vertex="1">
          <mxGeometry x="265" y="130" width="10" height="10" as="geometry" />
        </mxCell>
        <mxCell id="oD3bYgC-L7KplqavCX0M-35" value="&lt;p style=&quot;margin:0px;margin-top:6px;text-align:center;&quot;&gt;&lt;b&gt;Serviço de Notificação&lt;/b&gt;&lt;/p&gt;&lt;hr size=&quot;1&quot; style=&quot;border-style:solid;&quot;&gt;&lt;p style=&quot;margin:0px;margin-left:8px;&quot;&gt;usuario: str&lt;/p&gt;&lt;p style=&quot;margin:0px;margin-left:8px;&quot;&gt;mensagem: str&lt;/p&gt;&lt;p style=&quot;margin:0px;margin-left:8px;&quot;&gt;&lt;i&gt;&lt;span style=&quot;text-wrap: nowrap; background-color: initial; color: rgba(0, 0, 0, 0); font-family: monospace; font-size: 0px;&quot;&gt;%3CmxGraphModel%3E%3Croot%3E%3CmxCell%20id%3D%220%22%2F%3E%3CmxCell%20id%3D%221%22%20parent%3D%220%22%2F%3E%3CmxCell%20id%3D%222%22%20value%3D%22%26lt%3Bdiv%26gt%3B%26lt%3Bspan%20style%3D%26quot%3Bfont-weight%3A%20normal%3B%26quot%3B%26gt%3B%26lt%3Bi%26gt%3Bprovides%26lt%3B%2Fi%26gt%3B%26lt%3B%2Fspan%26gt%3B%26lt%3B%2Fdiv%26gt%3Benvia_dados%22%20style%3D%22text%3Balign%3Dleft%3BfontStyle%3D1%3BverticalAlign%3Dmiddle%3BspacingLeft%3D3%3BspacingRight%3D3%3BstrokeColor%3Dnone%3Brotatable%3D0%3Bpoints%3D%5B%5B0%2C0.5%5D%2C%5B1%2C0.5%5D%5D%3BportConstraint%3Deastwest%3Bhtml%3D1%3B%22%20vertex%3D%221%22%20parent%3D%221%22%3E%3CmxGeometry%20x%3D%22304%22%20y%3D%22-130%22%20width%3D%22110%22%20height%3D%2231.78%22%20as%3D%22geometry%22%2F%3E%3C%2FmxCell%3E%3C%2Froot%3E%3C%2FmxGraphModel%3E&lt;/span&gt;&lt;span style=&quot;text-wrap: nowrap; background-color: initial; color: rgba(0, 0, 0, 0); font-family: monospace; font-size: 0px;&quot;&gt;%3CmxGraphModel%3E%3Croot%3E%3CmxCell%20id%3D%220%22%2F%3E%3CmxCell%20id%3D%221%22%20parent%3D%220%22%2F%3E%3CmxCell%20id%3D%222%22%20value%3D%22%26lt%3Bdiv%26gt%3B%26lt%3Bspan%20style%3D%26quot%3Bfont-weight%3A%20normal%3B%26quot%3B%26gt%3B%26lt%3Bi%26gt%3Bprovides%26lt%3B%2Fi%26gt%3B%26lt%3B%2Fspan%26gt%3B%26lt%3B%2Fdiv%26gt%3Benvia_dados%22%20style%3D%22text%3Balign%3Dleft%3BfontStyle%3D1%3BverticalAlign%3Dmiddle%3BspacingLeft%3D3%3BspacingRight%3D3%3BstrokeColor%3Dnone%3Brotatable%3D0%3Bpoints%3D%5B%5B0%2C0.5%5D%2C%5B1%2C0.5%5D%5D%3BportConstraint%3Deastwest%3Bhtml%3D1%3B%22%20vertex%3D%221%22%20parent%3D%221%22%3E%3CmxGeometry%20x%3D%22304%22%20y%3D%22-130%22%20width%3D%22110%22%20height%3D%2231.78%22%20as%3D%22geometry%22%2F%3E%3C%2FmxCell%3E%3C%2Froot%3E%3C%2FmxGraphModel%3E&lt;/span&gt;&lt;span style=&quot;text-wrap: nowrap; background-color: initial;&quot;&gt;verifica_perigo()&lt;/span&gt;&lt;/i&gt;&lt;br&gt;&lt;/p&gt;" style="align=left;overflow=fill;html=1;dropTarget=0;whiteSpace=wrap;" parent="_5OnRm-G_WFXxfHDdo0h-41" vertex="1">
          <mxGeometry x="130" width="210" height="90" as="geometry" />
        </mxCell>
        <mxCell id="oD3bYgC-L7KplqavCX0M-36" value="" style="shape=component;jettyWidth=8;jettyHeight=4;" parent="oD3bYgC-L7KplqavCX0M-35" vertex="1">
          <mxGeometry x="1" width="20" height="20" relative="1" as="geometry">
            <mxPoint x="-24" y="4" as="offset" />
          </mxGeometry>
        </mxCell>
        <mxCell id="oD3bYgC-L7KplqavCX0M-38" value="&lt;div&gt;&lt;div style=&quot;&quot;&gt;&lt;span style=&quot;font-weight: normal;&quot;&gt;&lt;i&gt;provides&lt;/i&gt;&lt;/span&gt;&lt;/div&gt;&lt;div style=&quot;&quot;&gt;&lt;span style=&quot;background-color: initial;&quot;&gt;envia_mensagem&lt;/span&gt;&lt;br&gt;&lt;/div&gt;&lt;/div&gt;" style="text;align=right;fontStyle=1;verticalAlign=middle;spacingLeft=3;spacingRight=3;strokeColor=none;rotatable=0;points=[[0,0.5],[1,0.5]];portConstraint=eastwest;html=1;" parent="_5OnRm-G_WFXxfHDdo0h-41" vertex="1">
          <mxGeometry x="40" y="29.11222222222223" width="80" height="31.777777777777775" as="geometry" />
        </mxCell>
        <mxCell id="oD3bYgC-L7KplqavCX0M-39" value="" style="rounded=0;orthogonalLoop=1;jettySize=auto;html=1;endArrow=oval;endFill=0;sketch=0;sourcePerimeterSpacing=0;targetPerimeterSpacing=0;endSize=10;exitX=-0.004;exitY=0.888;exitDx=0;exitDy=0;exitPerimeter=0;" parent="_5OnRm-G_WFXxfHDdo0h-41" source="oD3bYgC-L7KplqavCX0M-35" edge="1">
          <mxGeometry relative="1" as="geometry">
            <mxPoint x="130" y="84.63999999999999" as="sourcePoint" />
            <mxPoint x="50" y="80" as="targetPoint" />
          </mxGeometry>
        </mxCell>
        <mxCell id="oD3bYgC-L7KplqavCX0M-13" value="&lt;div&gt;&lt;span style=&quot;font-weight: normal;&quot;&gt;&lt;i&gt;provides&lt;/i&gt;&lt;/span&gt;&lt;/div&gt;envia_dados" style="text;align=left;fontStyle=1;verticalAlign=middle;spacingLeft=3;spacingRight=3;strokeColor=none;rotatable=0;points=[[0,0.5],[1,0.5]];portConstraint=eastwest;html=1;" parent="1" vertex="1">
          <mxGeometry x="470" y="108.22222222222223" width="80" height="31.777777777777775" as="geometry" />
        </mxCell>
        <mxCell id="_5OnRm-G_WFXxfHDdo0h-42" value="«Interfaces»&lt;br&gt;&lt;b&gt;Serviço de Análise de Dados&lt;/b&gt;" style="html=1;dropTarget=0;whiteSpace=wrap;" parent="1" vertex="1">
          <mxGeometry x="-90" y="-129.11" width="180" height="90" as="geometry" />
        </mxCell>
        <mxCell id="_5OnRm-G_WFXxfHDdo0h-43" value="" style="shape=module;jettyWidth=8;jettyHeight=4;" parent="_5OnRm-G_WFXxfHDdo0h-42" vertex="1">
          <mxGeometry x="1" width="20" height="20" relative="1" as="geometry">
            <mxPoint x="-27" y="7" as="offset" />
          </mxGeometry>
        </mxCell>
        <mxCell id="_5OnRm-G_WFXxfHDdo0h-44" value="&lt;div&gt;&lt;span style=&quot;font-weight: normal;&quot;&gt;&lt;i&gt;requires&lt;/i&gt;&lt;/span&gt;&lt;/div&gt;recebe_dados" style="text;align=right;fontStyle=1;verticalAlign=middle;spacingLeft=3;spacingRight=3;strokeColor=none;rotatable=0;points=[[0,0.5],[1,0.5]];portConstraint=eastwest;html=1;" parent="1" vertex="1">
          <mxGeometry x="-60" y="79.11222222222217" width="80" height="31.777777777777775" as="geometry" />
        </mxCell>
        <mxCell id="_5OnRm-G_WFXxfHDdo0h-4" value="&lt;div&gt;&lt;div style=&quot;&quot;&gt;&lt;span style=&quot;font-weight: normal;&quot;&gt;&lt;i&gt;provides&lt;/i&gt;&lt;/span&gt;&lt;/div&gt;&lt;span style=&quot;&quot;&gt;&lt;/span&gt;&lt;/div&gt;envia_pesquisa" style="text;align=left;fontStyle=1;verticalAlign=middle;spacingLeft=3;spacingRight=3;strokeColor=none;rotatable=0;points=[[0,0.5],[1,0.5]];portConstraint=eastwest;html=1;" parent="1" vertex="1">
          <mxGeometry x="-160" y="-25.340000000000014" width="124" height="31.78" as="geometry" />
        </mxCell>
        <mxCell id="_5OnRm-G_WFXxfHDdo0h-8" value="" style="rounded=0;orthogonalLoop=1;jettySize=auto;html=1;endArrow=oval;endFill=0;sketch=0;sourcePerimeterSpacing=0;targetPerimeterSpacing=0;endSize=10;" parent="1" source="_5OnRm-G_WFXxfHDdo0h-42" edge="1">
          <mxGeometry relative="1" as="geometry">
            <mxPoint x="-420" y="10.20999999999998" as="sourcePoint" />
            <mxPoint x="-170" y="-30" as="targetPoint" />
          </mxGeometry>
        </mxCell>
        <mxCell id="_5OnRm-G_WFXxfHDdo0h-46" value="" style="rounded=0;orthogonalLoop=1;jettySize=auto;html=1;endArrow=halfCircle;endFill=0;endSize=6;strokeWidth=1;sketch=0;fontSize=12;curved=1;" parent="1" source="_5OnRm-G_WFXxfHDdo0h-1" edge="1">
          <mxGeometry relative="1" as="geometry">
            <mxPoint x="-123" y="84.73821428571425" as="sourcePoint" />
            <mxPoint x="-170" y="-30" as="targetPoint" />
          </mxGeometry>
        </mxCell>
        <mxCell id="_5OnRm-G_WFXxfHDdo0h-47" value="&lt;div&gt;&lt;span style=&quot;font-weight: normal;&quot;&gt;&lt;i&gt;requires&lt;/i&gt;&lt;/span&gt;&lt;/div&gt;recebe_dados" style="text;align=right;fontStyle=1;verticalAlign=middle;spacingLeft=3;spacingRight=3;strokeColor=none;rotatable=0;points=[[0,0.5],[1,0.5]];portConstraint=eastwest;html=1;" parent="1" vertex="1">
          <mxGeometry x="-250" y="-88.21777777777783" width="80" height="31.777777777777775" as="geometry" />
        </mxCell>
        <mxCell id="_5OnRm-G_WFXxfHDdo0h-49" value="" style="rounded=0;orthogonalLoop=1;jettySize=auto;html=1;endArrow=oval;endFill=0;sketch=0;sourcePerimeterSpacing=0;targetPerimeterSpacing=0;endSize=10;" parent="1" source="_5OnRm-G_WFXxfHDdo0h-50" edge="1">
          <mxGeometry relative="1" as="geometry">
            <mxPoint x="-315" y="42.89444444444443" as="sourcePoint" />
            <mxPoint x="-410" y="132.89" as="targetPoint" />
          </mxGeometry>
        </mxCell>
        <mxCell id="_5OnRm-G_WFXxfHDdo0h-50" value="«interface_api»&lt;br&gt;&lt;b&gt;API OpenAI&lt;/b&gt;" style="html=1;dropTarget=0;whiteSpace=wrap;" parent="1" vertex="1">
          <mxGeometry x="-490" y="192.89" width="160" height="70" as="geometry" />
        </mxCell>
        <mxCell id="_5OnRm-G_WFXxfHDdo0h-51" value="" style="shape=module;jettyWidth=8;jettyHeight=4;" parent="_5OnRm-G_WFXxfHDdo0h-50" vertex="1">
          <mxGeometry x="1" width="20" height="20" relative="1" as="geometry">
            <mxPoint x="-27" y="7" as="offset" />
          </mxGeometry>
        </mxCell>
        <mxCell id="_5OnRm-G_WFXxfHDdo0h-52" value="" style="rounded=0;orthogonalLoop=1;jettySize=auto;html=1;endArrow=halfCircle;endFill=0;endSize=6;strokeWidth=1;sketch=0;fontSize=12;curved=1;" parent="1" source="_5OnRm-G_WFXxfHDdo0h-1" edge="1">
          <mxGeometry relative="1" as="geometry">
            <mxPoint x="-280" y="13.89" as="sourcePoint" />
            <mxPoint x="-410" y="132.89" as="targetPoint" />
          </mxGeometry>
        </mxCell>
        <mxCell id="_5OnRm-G_WFXxfHDdo0h-53" value="&lt;div&gt;&lt;span style=&quot;font-weight: normal;&quot;&gt;&lt;i&gt;provides&lt;/i&gt;&lt;/span&gt;&lt;/div&gt;envia_dados" style="text;align=left;fontStyle=1;verticalAlign=middle;spacingLeft=3;spacingRight=3;strokeColor=none;rotatable=0;points=[[0,0.5],[1,0.5]];portConstraint=eastwest;html=1;" parent="1" vertex="1">
          <mxGeometry x="-400" y="141.11222222222221" width="80" height="31.777777777777775" as="geometry" />
        </mxCell>
        <mxCell id="_5OnRm-G_WFXxfHDdo0h-54" value="&lt;div&gt;&lt;span style=&quot;font-weight: normal;&quot;&gt;&lt;i&gt;requires&lt;/i&gt;&lt;/span&gt;&lt;/div&gt;solicita_dados" style="text;align=right;fontStyle=1;verticalAlign=middle;spacingLeft=3;spacingRight=3;strokeColor=none;rotatable=0;points=[[0,0.5],[1,0.5]];portConstraint=eastwest;html=1;" parent="1" vertex="1">
          <mxGeometry x="-510" y="89.33222222222216" width="80" height="31.777777777777775" as="geometry" />
        </mxCell>
        <mxCell id="oD3bYgC-L7KplqavCX0M-12" value="" style="rounded=0;orthogonalLoop=1;jettySize=auto;html=1;endArrow=oval;endFill=0;sketch=0;sourcePerimeterSpacing=0;targetPerimeterSpacing=0;endSize=10;" parent="1" source="_5OnRm-G_WFXxfHDdo0h-33" edge="1">
          <mxGeometry relative="1" as="geometry">
            <mxPoint x="615" y="-27.10555555555557" as="sourcePoint" />
            <mxPoint x="460" y="100" as="targetPoint" />
          </mxGeometry>
        </mxCell>
        <mxCell id="_5OnRm-G_WFXxfHDdo0h-33" value="«interface_api»&lt;br&gt;&lt;b&gt;API OpenWeatherMap&lt;/b&gt;" style="html=1;dropTarget=0;whiteSpace=wrap;" parent="1" vertex="1">
          <mxGeometry x="380" y="180" width="160" height="70" as="geometry" />
        </mxCell>
        <mxCell id="_5OnRm-G_WFXxfHDdo0h-34" value="" style="shape=module;jettyWidth=8;jettyHeight=4;" parent="_5OnRm-G_WFXxfHDdo0h-33" vertex="1">
          <mxGeometry x="1" width="20" height="20" relative="1" as="geometry">
            <mxPoint x="-27" y="7" as="offset" />
          </mxGeometry>
        </mxCell>
        <mxCell id="_5OnRm-G_WFXxfHDdo0h-64" value="" style="group" parent="1" vertex="1" connectable="0">
          <mxGeometry x="210" y="-112.5" width="30" height="110" as="geometry" />
        </mxCell>
        <mxCell id="_5OnRm-G_WFXxfHDdo0h-62" value="" style="rounded=0;whiteSpace=wrap;html=1;" parent="_5OnRm-G_WFXxfHDdo0h-64" vertex="1">
          <mxGeometry width="30" height="110" as="geometry" />
        </mxCell>
        <mxCell id="_5OnRm-G_WFXxfHDdo0h-63" value="&lt;i&gt;adaptador&lt;/i&gt;" style="text;html=1;align=center;verticalAlign=top;resizable=0;points=[];autosize=1;strokeColor=none;fillColor=none;rotation=-90;" parent="_5OnRm-G_WFXxfHDdo0h-64" vertex="1">
          <mxGeometry x="-25" y="40" width="80" height="30" as="geometry" />
        </mxCell>
        <mxCell id="_5OnRm-G_WFXxfHDdo0h-68" value="" style="rounded=0;orthogonalLoop=1;jettySize=auto;html=1;endArrow=oval;endFill=0;sketch=0;sourcePerimeterSpacing=0;targetPerimeterSpacing=0;endSize=10;" parent="1" source="_5OnRm-G_WFXxfHDdo0h-63" edge="1">
          <mxGeometry relative="1" as="geometry">
            <mxPoint x="200" y="-71.33" as="sourcePoint" />
            <mxPoint x="170" y="-60" as="targetPoint" />
          </mxGeometry>
        </mxCell>
        <mxCell id="_5OnRm-G_WFXxfHDdo0h-69" value="" style="rounded=0;orthogonalLoop=1;jettySize=auto;html=1;endArrow=halfCircle;endFill=0;endSize=6;strokeWidth=1;sketch=0;fontSize=12;curved=1;" parent="1" source="_5OnRm-G_WFXxfHDdo0h-63" edge="1">
          <mxGeometry relative="1" as="geometry">
            <mxPoint x="260" y="-36.34" as="sourcePoint" />
            <mxPoint x="320" y="-60" as="targetPoint" />
          </mxGeometry>
        </mxCell>
      </root>
    </mxGraphModel>
  </diagram>
</mxfile>
